<?xml version="1.0" encoding="UTF-8" standalone="no"?>
<!DOCTYPE svg PUBLIC "-//W3C//DTD SVG 1.1//EN" "http://www.w3.org/Graphics/SVG/1.1/DTD/svg11.dtd">
<svg width="100%" height="100%" viewBox="0 0 138 171" version="1.1" xmlns="http://www.w3.org/2000/svg" xmlns:xlink="http://www.w3.org/1999/xlink" xml:space="preserve" xmlns:serif="http://www.serif.com/" style="fill-rule:evenodd;clip-rule:evenodd;stroke-linejoin:round;stroke-miterlimit:2;">
    <g transform="matrix(1,0,0,1,0,-287.788)">
        <g id="ArtBoard3" transform="matrix(0.64257,0,0,4.51227,68.0966,75.634)">
            <rect x="-105.975" y="47.017" width="213.776" height="37.888" style="fill:none;"/>
            <g transform="matrix(6.60842,0,0,0.941072,-5438.25,-413.354)">
                <text x="803.791px" y="528.749px" style="font-family:'Comfortaa-Regular', 'Comfortaa';font-size:50px;">C</text>
            </g>
            <g transform="matrix(0.493213,0,0,0.0702359,-113.853,47.4033)">
                <path d="M334.653,325.068C345.89,330.422 353.978,337.689 359.914,342.733C367.873,349.497 366.89,362.575 364.643,373.709C362.636,383.654 371.445,387 388.496,398.018C399.357,405.036 377.092,430.045 365.469,438.057C353.846,446.069 335.028,450.405 318.759,446.091C302.49,441.776 294.552,450.705 296.86,463.034C298.888,473.872 312.094,476.78 331.757,473.948C306.845,513.37 244.09,521.997 123.165,458.932C60.359,415.472 27.696,360.577 31.413,291.883C23.268,229.215 40.905,170.062 72.191,112.771C94.853,81.6 121.964,65.447 158.967,82.676C147.08,90.406 156.596,99.398 159.213,101.289C184.818,119.793 245.65,156.112 180.143,243.892C129.672,311.524 148.321,347.58 226.387,335.417C258.151,330.468 266.07,322.679 289.737,318.995C294.041,314.266 302.049,305.671 307.309,301.252C316.819,293.262 325.846,289.516 334.077,288.546C344.543,287.312 344.963,293.611 344.963,293.611C344.963,293.611 336.603,311.047 335.036,317.794C334.587,319.729 334.536,322.425 334.653,325.068Z"/>
            </g>
        </g>
    </g>
</svg>
