<?xml version="1.0" encoding="UTF-8" standalone="no"?>
<!DOCTYPE svg PUBLIC "-//W3C//DTD SVG 1.1//EN" "http://www.w3.org/Graphics/SVG/1.1/DTD/svg11.dtd">
<svg width="100%" height="100%" viewBox="0 0 1029 171" version="1.1" xmlns="http://www.w3.org/2000/svg" xmlns:xlink="http://www.w3.org/1999/xlink" xml:space="preserve" xmlns:serif="http://www.serif.com/" style="fill-rule:evenodd;clip-rule:evenodd;stroke-linejoin:round;stroke-miterlimit:2;">
    <g transform="matrix(1,0,0,1,0,-47)">
        <g id="ArtBoard2" transform="matrix(4.80964,0,0,4.51227,509.703,-165.154)">
            <rect x="-105.975" y="47.017" width="213.776" height="37.888" style="fill:none;"/>
            <g transform="matrix(0.882887,0,0,0.941072,-818.369,-413.354)">
                <path d="M826.341,529.249C823.641,529.249 821.116,528.733 818.766,527.699C816.416,526.666 814.349,525.224 812.566,523.374C810.782,521.524 809.391,519.391 808.391,516.974C807.391,514.558 806.891,511.966 806.891,509.199C806.891,506.466 807.382,503.891 808.366,501.474C809.349,499.058 810.732,496.933 812.516,495.099C814.299,493.266 816.366,491.824 818.716,490.774C821.066,489.724 823.607,489.199 826.341,489.199C828.741,489.199 830.924,489.549 832.891,490.249C834.857,490.949 836.757,492.066 838.591,493.599C838.891,493.833 839.066,494.108 839.116,494.424C839.166,494.741 839.124,495.041 838.991,495.324C838.857,495.608 838.657,495.816 838.391,495.949C838.324,496.216 838.157,496.416 837.891,496.549C837.624,496.683 837.316,496.733 836.966,496.699C836.616,496.666 836.274,496.516 835.941,496.249C834.641,495.116 833.224,494.274 831.691,493.724C830.157,493.174 828.374,492.899 826.341,492.899C824.174,492.899 822.149,493.333 820.266,494.199C818.382,495.066 816.724,496.249 815.291,497.749C813.857,499.249 812.732,500.983 811.916,502.949C811.099,504.916 810.691,506.999 810.691,509.199C810.691,511.466 811.099,513.583 811.916,515.549C812.732,517.516 813.857,519.249 815.291,520.749C816.724,522.249 818.382,523.424 820.266,524.274C822.149,525.124 824.174,525.549 826.341,525.549C828.174,525.549 829.907,525.249 831.541,524.649C833.174,524.049 834.724,523.183 836.191,522.049C836.591,521.716 837.016,521.583 837.466,521.649C837.916,521.716 838.307,521.916 838.641,522.249C838.974,522.583 839.141,523.016 839.141,523.549C839.141,523.816 839.099,524.058 839.016,524.274C838.932,524.491 838.791,524.716 838.591,524.949C836.891,526.516 834.991,527.624 832.891,528.274C830.791,528.924 828.607,529.249 826.341,529.249Z" style="fill:white;fill-rule:nonzero;"/>
                <path d="M845.041,528.749C844.274,528.749 843.724,528.433 843.391,527.799C843.057,527.166 843.024,526.549 843.291,525.949L857.991,491.049C858.357,490.149 858.991,489.699 859.891,489.699C860.757,489.699 861.374,490.149 861.741,491.049L876.491,525.999C876.791,526.633 876.749,527.249 876.366,527.849C875.982,528.449 875.441,528.749 874.741,528.749C874.341,528.749 873.982,528.649 873.666,528.449C873.349,528.249 873.091,527.949 872.891,527.549L859.141,494.199L860.691,494.199L846.841,527.549C846.674,527.949 846.432,528.249 846.116,528.449C845.799,528.649 845.441,528.749 845.041,528.749ZM848.341,519.449L849.841,516.099L870.141,516.099L871.641,519.449L848.341,519.449Z" style="fill:white;fill-rule:nonzero;"/>
                <path d="M889.691,528.749C889.157,528.749 888.699,528.558 888.316,528.174C887.932,527.791 887.741,527.333 887.741,526.799L887.741,489.699L891.641,489.699L891.641,526.799C891.641,527.333 891.457,527.791 891.091,528.174C890.724,528.558 890.257,528.749 889.691,528.749ZM875.891,493.249C875.357,493.249 874.924,493.083 874.591,492.749C874.257,492.416 874.091,491.999 874.091,491.499C874.091,490.966 874.257,490.533 874.591,490.199C874.924,489.866 875.357,489.699 875.891,489.699L903.541,489.699C904.074,489.699 904.507,489.866 904.841,490.199C905.174,490.533 905.341,490.966 905.341,491.499C905.341,491.999 905.174,492.416 904.841,492.749C904.507,493.083 904.074,493.249 903.541,493.249L875.891,493.249Z" style="fill:white;fill-rule:nonzero;"/>
                <path d="M913.041,528.749C912.474,528.749 912.007,528.566 911.641,528.199C911.274,527.833 911.091,527.366 911.091,526.799L911.091,491.649C911.091,491.083 911.274,490.616 911.641,490.249C912.007,489.883 912.474,489.699 913.041,489.699C913.607,489.699 914.074,489.883 914.441,490.249C914.807,490.616 914.991,491.083 914.991,491.649L914.991,526.799C914.991,527.366 914.807,527.833 914.441,528.199C914.074,528.566 913.607,528.749 913.041,528.749Z" style="fill:white;fill-rule:nonzero;"/>
                <path d="M936.341,528.749C935.807,528.749 935.349,528.558 934.966,528.174C934.582,527.791 934.391,527.333 934.391,526.799L934.391,489.699L938.291,489.699L938.291,526.799C938.291,527.333 938.107,527.791 937.741,528.174C937.374,528.558 936.907,528.749 936.341,528.749ZM922.541,493.249C922.007,493.249 921.574,493.083 921.241,492.749C920.907,492.416 920.741,491.999 920.741,491.499C920.741,490.966 920.907,490.533 921.241,490.199C921.574,489.866 922.007,489.699 922.541,489.699L950.191,489.699C950.724,489.699 951.157,489.866 951.491,490.199C951.824,490.533 951.991,490.966 951.991,491.499C951.991,491.999 951.824,492.416 951.491,492.749C951.157,493.083 950.724,493.249 950.191,493.249L922.541,493.249Z" style="fill:white;fill-rule:nonzero;"/>
                <path d="M959.691,528.749C959.124,528.749 958.657,528.566 958.291,528.199C957.924,527.833 957.741,527.366 957.741,526.799L957.741,491.649C957.741,491.083 957.924,490.616 958.291,490.249C958.657,489.883 959.124,489.699 959.691,489.699C960.257,489.699 960.724,489.883 961.091,490.249C961.457,490.616 961.641,491.083 961.641,491.649L961.641,526.799C961.641,527.366 961.457,527.833 961.091,528.199C960.724,528.566 960.257,528.749 959.691,528.749Z" style="fill:white;fill-rule:nonzero;"/>
                <path d="M989.691,529.249C986.791,529.249 984.124,528.749 981.691,527.749C979.257,526.749 977.149,525.349 975.366,523.549C973.582,521.749 972.199,519.633 971.216,517.199C970.232,514.766 969.741,512.099 969.741,509.199C969.741,506.333 970.232,503.683 971.216,501.249C972.199,498.816 973.582,496.699 975.366,494.899C977.149,493.099 979.257,491.699 981.691,490.699C984.124,489.699 986.791,489.199 989.691,489.199C992.557,489.199 995.207,489.699 997.641,490.699C1000.07,491.699 1002.19,493.099 1003.99,494.899C1005.79,496.699 1007.18,498.816 1008.17,501.249C1009.15,503.683 1009.64,506.333 1009.64,509.199C1009.64,512.099 1009.15,514.766 1008.17,517.199C1007.18,519.633 1005.79,521.749 1003.99,523.549C1002.19,525.349 1000.07,526.749 997.641,527.749C995.207,528.749 992.557,529.249 989.691,529.249ZM989.691,525.549C991.991,525.549 994.124,525.141 996.091,524.324C998.057,523.508 999.766,522.358 1001.22,520.874C1002.67,519.391 1003.79,517.658 1004.59,515.674C1005.39,513.691 1005.79,511.533 1005.79,509.199C1005.79,506.899 1005.39,504.758 1004.59,502.774C1003.79,500.791 1002.67,499.058 1001.22,497.574C999.766,496.091 998.057,494.941 996.091,494.124C994.124,493.308 991.991,492.899 989.691,492.899C987.357,492.899 985.207,493.308 983.241,494.124C981.274,494.941 979.566,496.091 978.116,497.574C976.666,499.058 975.541,500.791 974.741,502.774C973.941,504.758 973.541,506.899 973.541,509.199C973.541,511.533 973.941,513.691 974.741,515.674C975.541,517.658 976.666,519.391 978.116,520.874C979.566,522.358 981.274,523.508 983.241,524.324C985.207,525.141 987.357,525.549 989.691,525.549Z" style="fill:white;fill-rule:nonzero;"/>
                <path d="M1019.64,528.749C1019.07,528.749 1018.61,528.566 1018.24,528.199C1017.87,527.833 1017.69,527.366 1017.69,526.799L1017.69,491.649C1017.69,491.083 1017.87,490.616 1018.24,490.249C1018.61,489.883 1019.07,489.699 1019.64,489.699C1020.24,489.699 1020.74,489.933 1021.14,490.399L1045.04,521.799L1045.04,491.649C1045.04,491.083 1045.22,490.616 1045.59,490.249C1045.96,489.883 1046.42,489.699 1046.99,489.699C1047.52,489.699 1047.98,489.883 1048.37,490.249C1048.75,490.616 1048.94,491.083 1048.94,491.649L1048.94,526.799C1048.94,527.366 1048.75,527.833 1048.37,528.199C1047.98,528.566 1047.52,528.749 1046.99,528.749C1046.72,528.749 1046.46,528.699 1046.19,528.599C1045.92,528.499 1045.71,528.333 1045.54,528.099L1021.59,496.699L1021.59,526.799C1021.59,527.366 1021.4,527.833 1021.02,528.199C1020.63,528.566 1020.17,528.749 1019.64,528.749Z" style="fill:white;fill-rule:nonzero;"/>
            </g>
            <g transform="matrix(0.0658934,0,0,0.0702359,-107.028,47.4033)">
                <path d="M342.933,300.227C354.17,305.581 362.259,312.848 368.194,317.892C376.153,324.656 375.171,337.733 372.923,348.868C370.916,358.813 379.725,362.159 396.777,373.177C407.638,380.195 385.372,405.204 373.75,413.216C362.127,421.228 343.309,425.564 327.04,421.25C310.771,416.935 294.552,450.705 296.86,463.034C298.888,473.872 312.094,476.78 331.757,473.948C306.845,513.37 244.09,521.997 123.165,458.932C60.359,415.472 27.696,360.577 31.413,291.883C23.268,229.215 40.905,170.062 72.191,112.771C94.853,81.6 121.964,65.447 158.967,82.676C147.08,90.406 156.596,99.398 159.213,101.289C184.818,119.793 245.65,156.112 180.143,243.892C129.672,311.524 148.321,347.58 226.387,335.417C258.151,330.468 274.35,297.838 298.018,294.153C302.322,289.425 310.329,280.83 315.589,276.411C325.1,268.421 334.126,264.675 342.358,263.705C352.823,262.471 353.244,268.769 353.244,268.769C353.244,268.769 344.883,286.206 343.316,292.953C342.867,294.888 342.816,297.584 342.933,300.227Z" style="fill:white;"/>
            </g>
        </g>
    </g>
</svg>
