<?xml version="1.0" encoding="UTF-8" standalone="no"?>
<!DOCTYPE svg PUBLIC "-//W3C//DTD SVG 1.1//EN" "http://www.w3.org/Graphics/SVG/1.1/DTD/svg11.dtd">
<svg width="100%" height="100%" viewBox="0 0 138 171" version="1.1" xmlns="http://www.w3.org/2000/svg" xmlns:xlink="http://www.w3.org/1999/xlink" xml:space="preserve" xmlns:serif="http://www.serif.com/" style="fill-rule:evenodd;clip-rule:evenodd;stroke-linejoin:round;stroke-miterlimit:2;">
    <g transform="matrix(1,0,0,1,0,-287.788)">
        <g id="ArtBoard3" transform="matrix(0.64257,0,0,4.51227,68.0966,75.634)">
            <rect x="-105.975" y="47.017" width="213.776" height="37.888" style="fill:none;"/>
            <g transform="matrix(6.60842,0,0,0.941072,-5438.25,-413.354)">
                <path d="M826.341,529.249C823.641,529.249 821.116,528.733 818.766,527.699C816.416,526.666 814.349,525.224 812.566,523.374C810.782,521.524 809.391,519.391 808.391,516.974C807.391,514.558 806.891,511.966 806.891,509.199C806.891,506.466 807.382,503.891 808.366,501.474C809.349,499.058 810.732,496.933 812.516,495.099C814.299,493.266 816.366,491.824 818.716,490.774C821.066,489.724 823.607,489.199 826.341,489.199C828.741,489.199 830.924,489.549 832.891,490.249C834.857,490.949 836.757,492.066 838.591,493.599C838.891,493.833 839.066,494.108 839.116,494.424C839.166,494.741 839.124,495.041 838.991,495.324C838.857,495.608 838.657,495.816 838.391,495.949C838.324,496.216 838.157,496.416 837.891,496.549C837.624,496.683 837.316,496.733 836.966,496.699C836.616,496.666 836.274,496.516 835.941,496.249C834.641,495.116 833.224,494.274 831.691,493.724C830.157,493.174 828.374,492.899 826.341,492.899C824.174,492.899 822.149,493.333 820.266,494.199C818.382,495.066 816.724,496.249 815.291,497.749C813.857,499.249 812.732,500.983 811.916,502.949C811.099,504.916 810.691,506.999 810.691,509.199C810.691,511.466 811.099,513.583 811.916,515.549C812.732,517.516 813.857,519.249 815.291,520.749C816.724,522.249 818.382,523.424 820.266,524.274C822.149,525.124 824.174,525.549 826.341,525.549C828.174,525.549 829.907,525.249 831.541,524.649C833.174,524.049 834.724,523.183 836.191,522.049C836.591,521.716 837.016,521.583 837.466,521.649C837.916,521.716 838.307,521.916 838.641,522.249C838.974,522.583 839.141,523.016 839.141,523.549C839.141,523.816 839.099,524.058 839.016,524.274C838.932,524.491 838.791,524.716 838.591,524.949C836.891,526.516 834.991,527.624 832.891,528.274C830.791,528.924 828.607,529.249 826.341,529.249Z" style="fill:white;fill-rule:nonzero;"/>
            </g>
            <g transform="matrix(0.493213,0,0,0.0702359,-113.853,47.4127)">
                <path d="M342.933,300.227C354.17,305.581 362.259,312.848 368.194,317.892C376.153,324.656 375.171,337.733 372.923,348.868C370.916,358.813 379.725,362.159 396.777,373.177C407.638,380.195 385.372,405.204 373.75,413.216C362.127,421.228 343.309,425.564 327.04,421.25C310.771,416.935 294.552,450.705 296.86,463.034C298.888,473.872 312.094,476.78 331.757,473.948C306.845,513.37 244.09,521.997 123.165,458.932C60.359,415.472 27.696,360.577 31.413,291.883C23.268,229.215 40.905,170.062 72.191,112.771C94.853,81.6 121.964,65.447 158.967,82.676C147.08,90.406 156.596,99.398 159.213,101.289C184.818,119.793 245.65,156.112 180.143,243.892C129.672,311.524 148.321,347.58 226.387,335.417C258.151,330.468 274.35,297.838 298.018,294.153C302.322,289.425 310.329,280.83 315.589,276.411C325.1,268.421 334.126,264.675 342.358,263.705C352.823,262.471 353.244,268.769 353.244,268.769C353.244,268.769 344.883,286.206 343.316,292.953C342.867,294.888 342.816,297.584 342.933,300.227Z" style="fill:white;"/>
            </g>
        </g>
    </g>
</svg>
