<?xml version="1.0" encoding="UTF-8" standalone="no"?>
<!DOCTYPE svg PUBLIC "-//W3C//DTD SVG 1.1//EN" "http://www.w3.org/Graphics/SVG/1.1/DTD/svg11.dtd">
<svg width="100%" height="100%" viewBox="0 0 1200 1515" version="1.1" xmlns="http://www.w3.org/2000/svg" xmlns:xlink="http://www.w3.org/1999/xlink" xml:space="preserve" xmlns:serif="http://www.serif.com/" style="fill-rule:evenodd;clip-rule:evenodd;stroke-linecap:round;stroke-linejoin:round;stroke-miterlimit:1.5;">
    <g transform="matrix(1,0,0,1,-2036,0)">
        <g id="ArtBoard3" transform="matrix(0.958582,0,0,1.15541,84.2215,-6.06568)">
            <rect x="2036.11" y="5.25" width="1251.85" height="1310.99" style="fill:none;"/>
            <g>
                <g transform="matrix(1.04321,0,0,0.865492,-87.8606,94.9944)">
                    <path d="M2290.03,141.358C2330.25,157.553 2375.12,157.915 2415.59,142.371C2480.51,117.529 2555.78,103.32 2636,103.32C2716.2,103.32 2791.46,117.524 2856.39,142.356C2896.86,157.896 2941.72,157.532 2981.93,141.339C3024,124.411 3070.08,105.859 3070.08,105.859C3070.08,105.859 3071.53,270.91 3072.03,327.322C3072.13,338.072 3073.22,348.79 3075.28,359.34C3077.82,372.001 3079.11,384.928 3079.11,398.055C3079.11,560.723 2880.56,692.789 2636,692.789C2391.44,692.789 2192.89,560.723 2192.89,398.055C2192.89,384.985 2194.17,372.113 2196.66,359.485C2198.7,348.978 2199.78,338.306 2199.87,327.602C2200.41,271.234 2201.87,105.859 2201.87,105.859C2201.87,105.859 2247.96,124.416 2290.03,141.358Z" style="fill:rgb(73,73,74);"/>
                </g>
                <g transform="matrix(1,0,0,0.396109,-21.8484,97.2424)">
                    <g transform="matrix(0.703157,0,0,2.18499,645.791,71.9567)">
                        <ellipse cx="2323.45" cy="570.725" rx="146.156" ry="60.562" style="fill:rgb(73,73,74);"/>
                    </g>
                    <g transform="matrix(0.703157,0,0,2.18499,1454.48,68.428)">
                        <ellipse cx="2323.45" cy="570.725" rx="146.156" ry="60.562" style="fill:rgb(73,73,74);"/>
                    </g>
                </g>
            </g>
            <g>
                <g transform="matrix(1,0,0,0.396109,-10.2656,116.462)">
                    <g>
                        <g transform="matrix(1.04321,0,0,2.18499,-71.0129,-25.0831)">
                            <circle cx="2372.3" cy="366.026" r="123.95" style="fill:white;"/>
                        </g>
                        <g transform="matrix(0.961654,0,0,2.01417,122.457,37.439)">
                            <circle cx="2372.3" cy="366.026" r="123.95"/>
                        </g>
                        <g transform="matrix(1.2218,1.68412,-0.312266,0.993813,-409.062,-3710.21)">
                            <ellipse cx="2415.62" cy="270.669" rx="20.533" ry="17.993" style="fill:white;"/>
                        </g>
                    </g>
                    <g transform="matrix(1,0,0,1,537.018,4.44089e-16)">
                        <g transform="matrix(1.04321,0,0,2.18499,-71.0129,-25.0831)">
                            <circle cx="2372.3" cy="366.026" r="123.95" style="fill:white;"/>
                        </g>
                        <g transform="matrix(0.961654,0,0,2.01417,122.457,37.439)">
                            <circle cx="2372.3" cy="366.026" r="123.95"/>
                        </g>
                        <g transform="matrix(1.2218,1.68412,-0.312266,0.993813,-409.062,-3710.21)">
                            <ellipse cx="2415.62" cy="270.669" rx="20.533" ry="17.993" style="fill:white;"/>
                        </g>
                    </g>
                </g>
                <g transform="matrix(1.04321,0,0,0.865492,-87.8606,94.9944)">
                    <ellipse cx="2542.2" cy="207.377" rx="1.905" ry="0.423" style="fill:white;"/>
                </g>
                <g transform="matrix(-1.04321,-1.05992e-16,1.27756e-16,-0.865492,5429.22,941.387)">
                    <path d="M2648.05,473.406C2649.04,471.864 2650.74,470.931 2652.58,470.931C2654.41,470.931 2656.12,471.864 2657.11,473.406C2661.73,480.6 2668.98,491.877 2674.41,500.311C2675.85,502.561 2675.95,505.421 2674.67,507.768C2673.39,510.115 2670.93,511.576 2668.26,511.576C2658.85,511.576 2646.31,511.576 2636.9,511.576C2634.22,511.576 2631.76,510.115 2630.48,507.768C2629.2,505.421 2629.3,502.561 2630.75,500.311C2636.17,491.877 2643.42,480.6 2648.05,473.406Z" style="fill:rgb(255,167,242);"/>
                </g>
            </g>
            <g transform="matrix(1.04321,0,0,0.865492,-89.6907,99.3219)">
                <rect x="2131.11" y="606.47" width="1013.29" height="795.906" style="fill:rgb(249,197,67);"/>
            </g>
            <g transform="matrix(1.04321,0,0,0.740392,-93.6081,278.928)">
                <rect x="2559.61" y="1263.56" width="163.809" height="132.394" style="fill:rgb(241,177,4);stroke:rgb(241,177,4);stroke-width:3.71px;"/>
            </g>
            <g transform="matrix(1.45124,0,0,1.20402,1201.75,-919.317)">
                <text x="702.169px" y="1628.65px" style="font-family:'Comfortaa-SemiBold', 'Comfortaa';font-weight:600;font-size:327.952px;fill:white;">404</text>
            </g>
        </g>
    </g>
</svg>
